<mxfile modified="2022-05-06T02:43:20.274Z" host="app.diagrams.net" agent="5.0 (Windows NT 10.0; Win64; x64) AppleWebKit/537.36 (KHTML, like Gecko) Chrome/100.0.4896.127 Safari/537.36 Edg/100.0.1185.50" etag="C66Jeb3f1lfJ_IIilPrB" compressed="false" version="17.5.0" type="google">
  <diagram name="Development/Patterns/Service/MVC" id="teZXeI0J9931yghv04_C">
    <mxGraphModel grid="1" page="1" gridSize="10" guides="1" tooltips="1" connect="1" arrows="1" fold="1" pageScale="1" pageWidth="850" pageHeight="1100" math="0" shadow="0">
      <root>
        <mxCell id="xM9XGsReBny8OIGWJbV3-0" />
        <mxCell id="xM9XGsReBny8OIGWJbV3-1" value="Diagram" parent="xM9XGsReBny8OIGWJbV3-0" />
        <mxCell id="xM9XGsReBny8OIGWJbV3-20" value="" style="arrow;strokeColor=#d6b656;strokeWidth=1;fontSize=12;fillColor=#fff2cc;" edge="1" parent="xM9XGsReBny8OIGWJbV3-1">
          <mxGeometry width="100" height="100" relative="1" as="geometry">
            <mxPoint x="540" y="240" as="sourcePoint" />
            <mxPoint x="540" y="160" as="targetPoint" />
          </mxGeometry>
        </mxCell>
        <mxCell id="xM9XGsReBny8OIGWJbV3-21" value="" style="arrow;strokeColor=#d6b656;strokeWidth=1;fontSize=12;fillColor=#fff2cc;" edge="1" parent="xM9XGsReBny8OIGWJbV3-1">
          <mxGeometry width="100" height="100" relative="1" as="geometry">
            <mxPoint x="370" y="300" as="sourcePoint" />
            <mxPoint x="450" y="300" as="targetPoint" />
          </mxGeometry>
        </mxCell>
        <mxCell id="xM9XGsReBny8OIGWJbV3-22" value="" style="arrow;strokeColor=#d6b656;strokeWidth=1;fontSize=12;fillColor=#fff2cc;" edge="1" parent="xM9XGsReBny8OIGWJbV3-1">
          <mxGeometry width="100" height="100" relative="1" as="geometry">
            <mxPoint x="250" y="160" as="sourcePoint" />
            <mxPoint x="250" y="240" as="targetPoint" />
          </mxGeometry>
        </mxCell>
        <mxCell id="xM9XGsReBny8OIGWJbV3-23" value="User" style="rounded=0;whiteSpace=wrap;strokeColor=#6c8ebf;fontSize=12;fillColor=#dae8fc;" vertex="1" parent="xM9XGsReBny8OIGWJbV3-1">
          <mxGeometry x="230" y="120" width="270" height="30" as="geometry" />
        </mxCell>
        <mxCell id="xM9XGsReBny8OIGWJbV3-24" value="Controller" style="rounded=0;whiteSpace=wrap;strokeColor=#6c8ebf;fontSize=12;fillColor=#dae8fc;" vertex="1" parent="xM9XGsReBny8OIGWJbV3-1">
          <mxGeometry x="230" y="250" width="100" height="30" as="geometry" />
        </mxCell>
        <mxCell id="xM9XGsReBny8OIGWJbV3-25" value="Models&#xa;(Business Model Entities)" style="rounded=0;whiteSpace=wrap;strokeColor=#6c8ebf;verticalAlign=top;fontSize=12;fillColor=#dae8fc;" vertex="1" parent="xM9XGsReBny8OIGWJbV3-1">
          <mxGeometry x="420" y="340" width="80" height="40" as="geometry" />
        </mxCell>
        <mxCell id="xM9XGsReBny8OIGWJbV3-26" value="Services&#xa;" style="rounded=0;whiteSpace=wrap;strokeColor=#6c8ebf;fontSize=12;fillColor=#dae8fc;" vertex="1" parent="xM9XGsReBny8OIGWJbV3-1">
          <mxGeometry x="230" y="340" width="100" height="40" as="geometry" />
        </mxCell>
        <mxCell id="xM9XGsReBny8OIGWJbV3-27" value="UnitTests" style="rounded=0;whiteSpace=wrap;strokeColor=#666666;fontSize=12;fillColor=#f5f5f5;fontColor=#333333;" vertex="1" parent="xM9XGsReBny8OIGWJbV3-1">
          <mxGeometry x="120" y="250" width="90" height="30" as="geometry" />
        </mxCell>
        <mxCell id="xM9XGsReBny8OIGWJbV3-28" value="&lt;&lt;action&gt;&gt;" style="edgeStyle=none;dashed=1;endArrow=open;entryX=0.5;entryY=0;fontSize=12;" edge="1" parent="xM9XGsReBny8OIGWJbV3-1" target="xM9XGsReBny8OIGWJbV3-24">
          <mxGeometry width="100" height="100" relative="1" as="geometry">
            <mxPoint x="280" y="150" as="sourcePoint" />
            <mxPoint x="270" y="250" as="targetPoint" />
            <mxPoint as="offset" />
          </mxGeometry>
        </mxCell>
        <mxCell id="xM9XGsReBny8OIGWJbV3-29" value="&lt;&lt;update vm&gt;&gt;" style="edgeStyle=none;exitX=1;exitY=0.5;dashed=1;endArrow=open;entryX=0;entryY=0.5;fontSize=12;" edge="1" parent="xM9XGsReBny8OIGWJbV3-1" source="xM9XGsReBny8OIGWJbV3-24" target="xM9XGsReBny8OIGWJbV3-30">
          <mxGeometry width="100" height="100" relative="1" as="geometry">
            <mxPoint x="335" y="295" as="sourcePoint" />
            <mxPoint x="335" y="335" as="targetPoint" />
          </mxGeometry>
        </mxCell>
        <mxCell id="xM9XGsReBny8OIGWJbV3-30" value="View Model" style="rounded=0;whiteSpace=wrap;strokeColor=#6c8ebf;verticalAlign=top;fontSize=12;fillColor=#dae8fc;" vertex="1" parent="xM9XGsReBny8OIGWJbV3-1">
          <mxGeometry x="421.25" y="250" width="80" height="28.75" as="geometry" />
        </mxCell>
        <mxCell id="xM9XGsReBny8OIGWJbV3-31" value="uses" style="edgeStyle=none;exitX=0.5;exitY=1;dashed=1;endArrow=open;fontSize=12;" edge="1" parent="xM9XGsReBny8OIGWJbV3-1" source="xM9XGsReBny8OIGWJbV3-24" target="xM9XGsReBny8OIGWJbV3-26">
          <mxGeometry width="100" height="100" relative="1" as="geometry">
            <mxPoint x="335" y="290" as="sourcePoint" />
            <mxPoint x="335" y="335" as="targetPoint" />
          </mxGeometry>
        </mxCell>
        <mxCell id="xM9XGsReBny8OIGWJbV3-32" value="" style="shape=mxgraph.basic.flash;fillColor=#ffffff;strokeColor=#999999;strokeWidth=1;gradientColor=#FFE599;fontSize=12;" vertex="1" parent="xM9XGsReBny8OIGWJbV3-1">
          <mxGeometry x="290" y="160" width="22.5" height="27.5" as="geometry" />
        </mxCell>
        <mxCell id="xM9XGsReBny8OIGWJbV3-33" value="Changes to ViewModel&#xa;Properties either by Commands&#xa;or other Properties raise an Event&#xa;that causes the UI framework&#xa;to refresh the UI View." style="text;spacingTop=-5;fontStyle=2;fontFamily=Helvetica;fontSize=12;whiteSpace=wrap;" vertex="1" parent="xM9XGsReBny8OIGWJbV3-1">
          <mxGeometry x="572.5" y="175" width="107.5" height="155" as="geometry" />
        </mxCell>
        <mxCell id="xM9XGsReBny8OIGWJbV3-34" value="" style="edgeStyle=none;exitX=1;exitY=0.5;dashed=1;endArrow=open;entryX=0;entryY=0.5;fontSize=12;" edge="1" parent="xM9XGsReBny8OIGWJbV3-1" source="xM9XGsReBny8OIGWJbV3-27" target="xM9XGsReBny8OIGWJbV3-24">
          <mxGeometry width="100" height="100" relative="1" as="geometry">
            <mxPoint x="292.5" y="290" as="sourcePoint" />
            <mxPoint x="292.5" y="323.75" as="targetPoint" />
          </mxGeometry>
        </mxCell>
        <mxCell id="xM9XGsReBny8OIGWJbV3-35" value="View" style="rounded=0;whiteSpace=wrap;strokeColor=#6c8ebf;fontSize=12;fillColor=#dae8fc;" vertex="1" parent="xM9XGsReBny8OIGWJbV3-1">
          <mxGeometry x="421.25" y="190" width="78.75" height="30" as="geometry" />
        </mxCell>
        <mxCell id="xM9XGsReBny8OIGWJbV3-36" value="backs" style="edgeStyle=none;exitX=0.5;exitY=0;dashed=1;endArrow=open;fontSize=12;" edge="1" parent="xM9XGsReBny8OIGWJbV3-1" source="xM9XGsReBny8OIGWJbV3-30">
          <mxGeometry width="100" height="100" relative="1" as="geometry">
            <mxPoint x="323.75" y="290" as="sourcePoint" />
            <mxPoint x="461.25" y="220" as="targetPoint" />
          </mxGeometry>
        </mxCell>
        <mxCell id="xM9XGsReBny8OIGWJbV3-37" value="&lt;&lt;rendered template+data&gt;&gt;" style="edgeStyle=none;exitX=0.5;exitY=0;dashed=1;endArrow=open;fontSize=12;" edge="1" parent="xM9XGsReBny8OIGWJbV3-1" source="xM9XGsReBny8OIGWJbV3-35">
          <mxGeometry width="100" height="100" relative="1" as="geometry">
            <mxPoint x="471.25" y="260" as="sourcePoint" />
            <mxPoint x="460.625" y="150" as="targetPoint" />
          </mxGeometry>
        </mxCell>
        <mxCell id="xM9XGsReBny8OIGWJbV3-38" value="manipulates" style="edgeStyle=none;exitX=1;exitY=0.5;dashed=1;endArrow=open;fontSize=12;" edge="1" parent="xM9XGsReBny8OIGWJbV3-1" source="xM9XGsReBny8OIGWJbV3-26" target="xM9XGsReBny8OIGWJbV3-25">
          <mxGeometry width="100" height="100" relative="1" as="geometry">
            <mxPoint x="292.5" y="320" as="sourcePoint" />
            <mxPoint x="292.5" y="353.75" as="targetPoint" />
          </mxGeometry>
        </mxCell>
        <mxCell id="xM9XGsReBny8OIGWJbV3-39" value="" style="edgeStyle=none;exitX=0.75;exitY=1;dashed=1;endArrow=open;fontSize=12;" edge="1" parent="xM9XGsReBny8OIGWJbV3-1" source="xM9XGsReBny8OIGWJbV3-24" target="xM9XGsReBny8OIGWJbV3-25">
          <mxGeometry width="100" height="100" relative="1" as="geometry">
            <mxPoint x="340" y="335" as="sourcePoint" />
            <mxPoint x="365" y="335" as="targetPoint" />
          </mxGeometry>
        </mxCell>
        <mxCell id="xM9XGsReBny8OIGWJbV3-40" value="embeds" style="edgeStyle=none;dashed=1;endArrow=open;fontSize=12;" edge="1" parent="xM9XGsReBny8OIGWJbV3-1" target="xM9XGsReBny8OIGWJbV3-25">
          <mxGeometry width="100" height="100" relative="1" as="geometry">
            <mxPoint x="461.25" y="280" as="sourcePoint" />
            <mxPoint x="471.25" y="230" as="targetPoint" />
          </mxGeometry>
        </mxCell>
        <mxCell id="xM9XGsReBny8OIGWJbV3-41" value="&lt;&lt;merges v + vm&gt;&gt;" style="edgeStyle=none;exitX=1;exitY=0.5;dashed=1;endArrow=open;entryX=0;entryY=0.5;fontSize=12;" edge="1" parent="xM9XGsReBny8OIGWJbV3-1" source="xM9XGsReBny8OIGWJbV3-24" target="xM9XGsReBny8OIGWJbV3-35">
          <mxGeometry width="100" height="100" relative="1" as="geometry">
            <mxPoint x="340" y="275" as="sourcePoint" />
            <mxPoint x="431.25" y="274.375" as="targetPoint" />
          </mxGeometry>
        </mxCell>
        <mxCell id="6J05yWThwvdI6k0VwKIH-4" value="" style="arrow;strokeColor=#d6b656;strokeWidth=1;fontSize=12;fillColor=#fff2cc;" edge="1" parent="xM9XGsReBny8OIGWJbV3-1">
          <mxGeometry width="100" height="100" relative="1" as="geometry">
            <mxPoint x="420" y="100" as="sourcePoint" />
            <mxPoint x="330" y="100" as="targetPoint" />
          </mxGeometry>
        </mxCell>
        <mxCell id="6J05yWThwvdI6k0VwKIH-1" value="Title/Diagram" parent="xM9XGsReBny8OIGWJbV3-0" />
        <mxCell id="xM9XGsReBny8OIGWJbV3-14" value="&lt;font style=&quot;font-size: 12px&quot;&gt;Diagram: Base System&amp;nbsp;Logical Module - Development - Patterns - MVC Pattern&lt;/font&gt;" style="text;strokeColor=none;fillColor=none;html=1;fontSize=12;fontStyle=2;verticalAlign=middle;align=left;shadow=0;glass=0;comic=0;opacity=30;fontColor=#808080;" vertex="1" parent="6J05yWThwvdI6k0VwKIH-1">
          <mxGeometry x="120" y="410" width="560" height="20" as="geometry" />
        </mxCell>
        <mxCell id="6J05yWThwvdI6k0VwKIH-0" value="TItle/Page" visible="0" parent="xM9XGsReBny8OIGWJbV3-0" />
        <mxCell id="xM9XGsReBny8OIGWJbV3-15" value="" style="group;fontSize=10;" vertex="1" connectable="0" parent="6J05yWThwvdI6k0VwKIH-0">
          <mxGeometry x="120" y="120" width="560" height="45" as="geometry" />
        </mxCell>
        <mxCell id="xM9XGsReBny8OIGWJbV3-16" value="&lt;font style=&quot;font-size: 12px&quot;&gt;Base Logical Module - Development - Patterns - MVC Pattern&lt;/font&gt;" style="text;strokeColor=none;fillColor=none;html=1;fontSize=12;fontStyle=1;verticalAlign=middle;align=left;shadow=0;glass=0;comic=0;opacity=30;fontColor=#808080;" vertex="1" parent="xM9XGsReBny8OIGWJbV3-15">
          <mxGeometry width="560" height="40" as="geometry" />
        </mxCell>
        <mxCell id="xM9XGsReBny8OIGWJbV3-17" value="" style="line;strokeWidth=2;html=1;shadow=0;glass=0;comic=0;fillColor=none;fontSize=10;fontColor=#CCCCCC;labelBackgroundColor=none;strokeColor=#CCCCCC;" vertex="1" parent="xM9XGsReBny8OIGWJbV3-15">
          <mxGeometry y="35" width="560" height="10" as="geometry" />
        </mxCell>
      </root>
    </mxGraphModel>
  </diagram>
</mxfile>
